HIERARCHY
ROOT pelvis
{
  OFFSET 0 100 0
  CHANNELS 6 Xposition Yposition Zposition Zrotation Xrotation Yrotation
  JOINT pelvis_right_femur
  {
    OFFSET -10.78128 -3.44521 -0.5502486
    CHANNELS 3 Zrotation Xrotation Yrotation
    JOINT right_femur_tibia
    {
      OFFSET -0.8047443 -44.0398 -0.1307829
      CHANNELS 3 Zrotation Xrotation Yrotation
      JOINT right_tibia_foot
      {
        OFFSET 3.006224 -47.83518 -5
        CHANNELS 3 Zrotation Xrotation Yrotation
        End Site
        {
          OFFSET 0 -5 15
        }
      }
    }
  }
  JOINT pelvis_left_femur
  {
    OFFSET 10.78128 -3.44521 -0.5502486
    CHANNELS 3 Zrotation Xrotation Yrotation
    JOINT left_femur_tibia
    {
      OFFSET 0.8047443 -44.0398 -0.1307829
      CHANNELS 3 Zrotation Xrotation Yrotation
      JOINT left_tibia_foot
      {
        OFFSET -4.370144 -48.10324 -4.275266
        CHANNELS 3 Zrotation Xrotation Yrotation
        End Site
        {
          OFFSET 0 -5 15
        }
      }
    }
  }
  JOINT pelvis_spine1
  {
    OFFSET 0 6.468898 -3.129235
    CHANNELS 3 Zrotation Xrotation Yrotation
    JOINT spine1
    {
      OFFSET 0 23.15396 4.99043
      CHANNELS 3 Zrotation Xrotation Yrotation
      JOINT spine2
      {
        OFFSET 0 20.79997 -5.064912
        CHANNELS 3 Zrotation Xrotation Yrotation
        JOINT neck
        {
          OFFSET 0 14.38658 9.616178
          CHANNELS 3 Zrotation Xrotation Yrotation
          End Site
          {
            OFFSET 0 20 0
          }
        }
      }
      JOINT right_manubrium
      {
        OFFSET -5.722621 16.35077 3.967754
        CHANNELS 3 Zrotation Xrotation Yrotation
        JOINT right_clavicle
        {
          OFFSET -13.16364 1.694482 -4.693211
          CHANNELS 3 Zrotation Xrotation Yrotation
          JOINT right_humerus
          {
            OFFSET -28.5034 -0.3100689 -2.792744
            CHANNELS 3 Zrotation Xrotation Yrotation
            JOINT right_radius
            {
              OFFSET -25.15693 0.02248979 -1.271978
              CHANNELS 3 Zrotation Xrotation Yrotation
              End Site
              {
                OFFSET -15 0 0
              }
            }
          }
        }
      }
      JOINT left_manubrium
      {
        OFFSET 5.722621 16.35077 3.967754
        CHANNELS 3 Zrotation Xrotation Yrotation
        JOINT left_clavicle
        {
          OFFSET 13.16364 1.694482 -4.693211
          CHANNELS 3 Zrotation Xrotation Yrotation
          JOINT left_humerus
          {
            OFFSET 29.39168 -1.063119 -2.237045
            CHANNELS 3 Zrotation Xrotation Yrotation
            JOINT left_radius
            {
              OFFSET 24.59957 -0.9528479 0.9047498
              CHANNELS 3 Zrotation Xrotation Yrotation
              End Site
              {
                OFFSET 15 -0 -0
              }
            }
          }
        }
      }
    }
  }
}
MOTION
Frames: 17
Frame Time: 0.0416666666667
0 103.5113 0 2.634715 0.2442741 0.1471 3.130513 -15.37069 11.303 -0 36.24062 -0 -4.120742 -19.65981 -3.317592 -9.340766 9.82017 -22.36481 -0 4.267521 -0 22.96218 -9.603662 30.97429 -3.120932 -2.839393 4.473662 3.57882 9.826801 -7.95478 1.522096 20.76655 7.081154 2.72395 -26.2389 10.54879 5.764273 -19.31798 11.67451 86.2096 37.59606 -18.93334 -0 0 14.00805 -6.253041 8.934198 4.268826 6.163015 -19.95773 -1.069994 -90.86828 20.3866 19.64952 0 0 -18.38087 14.42484 12.8312 -3.043913
0.3888659 103.4919 1.631482 1.929092 1.275219 0.2345624 4.549654 -18.30504 12.3518 -0 36.5739 -0 -4.157413 -18.59098 -3.368648 -9.034929 9.56038 -22.26517 -0 4.804863 -0 23.00881 -10.05819 31.59597 -3.17706 -2.876958 4.539865 3.612011 9.60057 -7.80511 1.536682 20.59743 7.388354 2.828733 -27.01074 11.04334 5.427204 -19.82325 11.626 86.32379 38.13734 -18.90181 -0 0 14.0882 -5.729963 8.555542 4.344704 6.284189 -19.76637 -1.27239 -90.61796 20.57537 19.71571 0 0 -20.31242 15.2481 12.01373 -3.620578
0.7171409 103.069 3.76992 1.544859 -0.1531914 0.3786616 4.008302 -20.27524 6.979283 -0 31.28683 -0 -6.364255 -14.41637 -1.774243 -8.138656 11.24507 -21.17786 -0 5.785268 -0 17.98121 -13.61893 28.20551 -3.031156 -2.534121 4.383282 3.632275 9.859644 -7.899917 1.492362 20.72792 7.174534 2.755923 -26.30038 10.57736 5.616362 -19.16788 11.71164 86.64551 38.04142 -19.30895 -0 0 13.10127 -6.015523 8.76244 4.517088 6.010745 -19.98128 -1.601312 -90.01386 20.45885 18.94082 0 0 -20.51215 14.67148 11.81465 -2.939641
1.014328 102.5847 6.249968 1.074064 -0.1497968 0.4619736 4.400207 -22.8976 5.329571 -0 28.63961 -0 -7.220372 -11.91643 -1.116712 -7.663576 11.87036 -20.34886 -0 6.629626 -0 16.28533 -15.13932 26.87784 -2.887224 -2.423707 4.369926 3.615764 9.940359 -7.914774 1.472363 20.72984 7.15757 2.774105 -26.23164 10.48177 5.603275 -19.01928 11.71886 86.92514 37.97903 -19.70314 -0 0 12.67303 -6.007935 8.752934 4.579904 5.976557 -20.13099 -1.785097 -89.86099 20.72625 18.7894 0 0 -21.09538 14.48684 11.61342 -2.4958
1.293773 101.992 9.095514 0.7545648 -0.1963595 0.550861 4.636899 -25.18303 3.747972 -0 25.83364 -0 -8.021 -9.555641 -0.4361666 -7.350842 12.46103 -19.31718 -0 7.697437 -0 15.54153 -16.0233 25.67126 -2.739236 -2.278339 4.332489 3.602085 10.0532 -7.948908 1.444938 20.74305 7.115107 2.785194 -26.06427 10.32211 5.612102 -18.79458 11.73719 87.23808 37.89868 -20.13415 -0 0 12.14491 -6.081474 8.786388 4.676108 5.91291 -20.30757 -2.00119 -89.61766 20.94115 18.51823 0 0 -21.67405 14.21981 11.38629 -1.981026
1.562313 101.3496 12.33022 0.4704811 -0.09693845 0.6572083 4.95605 -27.36505 2.586722 -0 23.21396 -0 -8.656376 -7.343209 0.1544563 -7.138192 12.96897 -18.19362 -0 9.148104 -0 15.41907 -16.43412 24.66989 -2.579244 -2.174867 4.320508 3.574995 10.1513 -7.981432 1.418295 20.73676 7.09331 2.812756 -25.97547 10.19589 5.600803 -18.63648 11.74214 87.55794 37.78557 -20.59498 -0 0 11.71245 -6.145837 8.805174 4.747931 5.893612 -20.49815 -2.179386 -89.47984 21.23126 18.36858 0 0 -22.22125 13.95942 11.20406 -1.445325
1.821504 100.6971 15.99513 0.2361576 -0.09813411 0.7889842 5.255302 -29.13796 1.477073 -0 20.73587 -0 -9.316538 -5.142579 0.7292734 -6.980101 13.48057 -16.89684 -0 11.22875 -0 15.62618 -16.37472 23.63852 -2.425442 -2.066763 4.300986 3.546806 10.26106 -8.024435 1.387938 20.73232 7.061841 2.83907 -25.84646 10.04258 5.598865 -18.45837 11.75061 87.87778 37.65728 -21.0528 -0 0 11.27468 -6.268345 8.850597 4.833602 5.868152 -20.69717 -2.355756 -89.31982 21.48231 18.18376 0 0 -22.71191 13.65757 11.02715 -0.8897216
2.069046 100.1082 20.12862 8.505954e-05 -0.2692938 0.9341674 5.613935 -30.39762 0.4721567 -0 18.62834 -0 -10.04179 -2.958512 1.236027 -6.814419 13.97414 -15.41468 -0 14.20443 -0 15.90982 -15.83146 22.491 -2.27664 -1.961936 4.281648 3.513328 10.38334 -8.07635 1.354344 20.73126 7.017635 2.864097 -25.67847 9.860848 5.610226 -18.2687 11.76135 88.18082 37.49618 -21.49302 -0 0 10.86473 -6.454911 8.924504 4.925267 5.839708 -20.90247 -2.514752 -89.17631 21.70267 18.00563 0 0 -23.07373 13.29886 10.88527 -0.3030375
2.299355 99.67288 24.7525 -0.2732728 -0.7291023 1.054492 6.090068 -30.94695 -0.3873726 -0 17.1019 -0 -10.88056 -0.8673251 1.618155 -6.57934 14.37551 -13.74152 -0 18.34245 -0 16.08116 -14.73655 21.16383 -2.140598 -1.849518 4.257298 3.47637 10.52635 -8.137972 1.316223 20.7414 6.949847 2.881636 -25.43441 9.631757 5.644228 -18.04778 11.77975 88.44841 37.29695 -21.88627 -0 0 10.47282 -6.735086 9.040403 5.036711 5.791677 -21.10669 -2.661076 -89.02659 21.85703 17.80679 0 0 -23.26214 12.85939 10.77403 0.3190361
2.505186 99.49461 29.85393 -0.6160111 -1.553868 1.080619 6.742586 -30.604 -0.9921028 -0 16.31029 -0 -11.83401 0.979517 1.798276 -6.209292 14.52043 -11.92999 -0 23.83659 -0 15.97133 -13.0484 19.65062 -2.019703 -1.727838 4.233471 3.432248 10.69343 -8.204424 1.27287 20.76731 6.852767 2.889369 -25.09895 9.346694 5.703582 -17.79646 11.80743 88.65572 37.04634 -22.20004 -0 0 10.11865 -7.130201 9.202318 5.177144 5.716693 -21.30215 -2.790989 -88.88296 21.9393 17.60461 0 0 -23.22582 12.31598 10.69918 0.9926152
2.679188 99.66622 35.36756 -1.02733 -2.777026 0.9178003 7.550183 -29.18077 -1.270594 -0 16.22496 -0 -12.87092 2.388387 1.714958 -5.654078 14.14985 -10.09662 -0 30.69745 -0 15.47611 -10.79095 18.01338 -1.918725 -1.59302 4.216703 3.376549 10.88529 -8.266641 1.223437 20.81333 6.722838 2.885017 -24.6561 8.999327 5.785917 -17.51948 11.84627 88.77223 36.73657 -22.38893 -0 0 9.822474 -7.666724 9.411714 5.366356 5.605165 -21.47673 -2.90639 -88.74587 21.94151 17.40812 0 0 -22.94049 11.64874 10.6503 1.732274
2.8147 100.2399 41.16664 -1.457463 -4.347571 0.4728585 8.370881 -26.5364 -1.240939 -0 16.56522 -0 -13.92745 3.186351 1.351913 -4.903236 12.93768 -8.410224 -0 38.61785 -0 14.58216 -8.12223 16.38721 -1.843361 -1.443935 4.218021 3.30252 11.09668 -8.309679 1.167782 20.88149 6.561694 2.867911 -24.10033 8.592138 5.88107 -17.23448 11.89663 88.76166 36.36483 -22.39621 -0 0 9.617192 -8.368915 9.663227 5.630246 5.450744 -21.61373 -3.010291 -88.617 21.86471 17.23374 0 0 -22.4105 10.84708 10.60655 2.549139
2.904983 101.1951 47.07514 -1.802592 -6.122602 -0.2977204 8.963622 -22.64492 -1.03307 -0 16.83482 -0 -14.92295 3.305124 0.7649086 -4.010048 10.58649 -7.03115 -0 46.86306 -0 13.39476 -5.370398 14.95714 -1.802991 -1.281395 4.249323 3.203476 11.31616 -8.314592 1.107536 20.97141 6.375857 2.837637 -23.43301 8.137319 5.9727 -16.96773 11.95831 88.58528 35.93597 -22.15683 -0 0 9.541434 -9.255665 9.946516 5.998965 5.249377 -21.69037 -3.108242 -88.48941 21.71042 17.09174 0 0 -21.67518 9.915515 10.53498 3.440705
2.942236 102.4234 52.90587 -1.937938 -7.900879 -1.343517 9.113247 -17.67352 -0.8219326 -0 16.53391 -0 -15.77202 2.832605 0.07597359 -3.076165 6.980525 -6.027187 -0 54.2636 -0 12.12033 -2.981972 13.90074 -1.809675 -1.109813 4.321582 3.074008 11.52727 -8.261525 1.04769 21.08044 6.174903 2.793175 -22.66091 7.657106 6.042566 -16.75004 12.03037 88.20766 35.45768 -21.60823 -0 0 9.637899 -10.3312 10.24755 6.496156 5.001074 -21.67904 -3.204676 -88.35437 21.48114 16.98877 0 0 -20.79272 8.873896 10.40307 4.388387
2.920229 103.7424 58.51185 -1.795853 -9.489833 -2.523914 8.787562 -12.01369 -0.7141425 -0 15.46485 -0 -16.38653 1.962435 -0.5762268 -2.169301 2.317228 -5.321763 -0 59.37315 -0 10.99769 -1.34498 13.3211 -1.875246 -0.9368382 4.442628 2.910584 11.71166 -8.133365 0.9978223 21.20541 5.966695 2.731411 -21.78839 7.179395 6.076411 -16.60804 12.11088 87.60245 34.93091 -20.70154 -0 0 9.948869 -11.57806 10.55118 7.127964 4.710055 -21.5501 -3.299642 -88.20897 21.18148 16.92957 0 0 -19.81391 7.748969 10.1944 5.363422
2.843422 104.935 63.82559 -1.44868 -10.75054 -3.675241 8.192934 -6.228792 -0.6790284 -0 13.89985 -0 -16.67182 0.8367354 -1.107537 -1.225267 -2.888543 -4.71554 -0 60.80784 -0 10.2039 -0.5716677 13.20416 -2.006057 -0.7714384 4.617221 2.709986 11.85108 -7.916759 0.9722967 21.34536 5.752031 2.646191 -20.80955 6.7312 6.066727 -16.55739 12.19568 86.75535 34.3397 -19.40668 -0 0 10.51498 -12.95465 10.84166 7.877175 4.384574 -21.27508 -3.386462 -88.06497 20.82415 16.92189 0 0 -18.75949 6.560978 9.920615 6.340934
2.738757 105.7977 68.87043 -1.111694 -11.59708 -4.694182 7.662905 -0.9221413 -0.5802072 -0 12.43513 -0 -16.53187 -0.5931489 -1.534061 -0.058262 -7.937601 -3.97121 -0 57.72382 -0 9.792189 -0.4233236 13.41874 -2.197304 -0.6203556 4.848453 2.466913 11.92618 -7.600355 0.9896459 21.50346 5.52135 2.528308 -19.70523 6.333556 6.010033 -16.60048 12.27667 85.66695 33.6473 -17.71237 -0 0 11.37429 -14.39729 11.1014 8.704863 4.03699 -20.82896 -3.45211 -87.95116 20.43657 16.97782 0 0 -17.61927 5.314546 9.621847 7.313179
